<svg xmlns="http://www.w3.org/2000/svg" xmlns:xlink="http://www.w3.org/1999/xlink" version="1.1" x="0px" y="0px" viewBox="0 0 100 125" enable-background="new 0 0 100 100" xml:space="preserve"><g><g><path d="M90,32.115h-5.91h-3.039v-6.887c0-7.001-5.697-12.697-12.699-12.697H31.648c-7.002,0-12.699,5.696-12.699,12.697v6.887    H15.91H10c-0.276,0-0.5,0.224-0.5,0.5v13.316c0,0.276,0.224,0.5,0.5,0.5h5.91h3.039v14.293v18.107v6.012    c0,1.447,1.177,2.625,2.625,2.625h11.601c1.447,0,2.625-1.178,2.625-2.625v-5.512h28.401v5.512c0,1.447,1.177,2.625,2.625,2.625    h11.601c1.447,0,2.625-1.178,2.625-2.625v-6.012V60.725V46.432h3.039H90c0.276,0,0.5-0.224,0.5-0.5V32.615    C90.5,32.339,90.276,32.115,90,32.115z M35.299,78.332h-15.35V61.225h60.102v17.107h-15.35H35.299z M80.051,60.225H19.949V25.729    h60.102V60.225z M31.648,13.531h36.704c6.282,0,11.409,4.979,11.673,11.197H19.975C20.239,18.511,25.366,13.531,31.648,13.531z     M10.5,33.115h4.91v12.316H10.5V33.115z M16.41,45.432V33.115h2.539v12.316H16.41z M34.799,84.844    c0,0.896-0.729,1.625-1.625,1.625H21.574c-0.896,0-1.625-0.729-1.625-1.625v-5.512h14.85V84.844z M80.051,84.844    c0,0.896-0.729,1.625-1.625,1.625H66.825c-0.896,0-1.625-0.729-1.625-1.625v-5.512h14.85V84.844z M81.051,33.115h2.539v12.316    h-2.539V33.115z M89.5,45.432h-4.91V33.115h4.91V45.432z"/><path d="M43.684,20.232h12.632c0.276,0,0.5-0.224,0.5-0.5s-0.224-0.5-0.5-0.5H43.684c-0.276,0-0.5,0.224-0.5,0.5    S43.408,20.232,43.684,20.232z"/><path d="M34.436,65.984H22.974c-0.276,0-0.5,0.224-0.5,0.5v4.238c0,0.276,0.224,0.5,0.5,0.5h11.461c0.276,0,0.5-0.224,0.5-0.5    v-4.238C34.936,66.208,34.712,65.984,34.436,65.984z M33.936,70.223H23.474v-3.238h10.461V70.223z"/><path d="M77.026,65.984H65.564c-0.276,0-0.5,0.224-0.5,0.5v4.238c0,0.276,0.224,0.5,0.5,0.5h11.461c0.276,0,0.5-0.224,0.5-0.5    v-4.238C77.526,66.208,77.302,65.984,77.026,65.984z M76.526,70.223H66.064v-3.238h10.461V70.223z"/><path d="M61.457,65.984H38.543c-0.276,0-0.5,0.224-0.5,0.5v5.266c0,0.237,0.167,0.442,0.399,0.49l11.457,2.35    c0.033,0.007,0.067,0.01,0.101,0.01s0.067-0.003,0.101-0.01l11.457-2.35c0.232-0.048,0.399-0.253,0.399-0.49v-5.266    C61.957,66.208,61.733,65.984,61.457,65.984z M60.957,71.342L50,73.589l-10.957-2.247v-4.357h21.913V71.342z"/></g></g></svg>