<svg xmlns="http://www.w3.org/2000/svg" data-name="Layer 1" viewBox="0 0 100 125" x="0px" y="0px"><title>11</title><g data-name="Group"><path data-name="Compound Path" d="M33.63,57.33,19.17,56.16a3,3,0,0,0-2.91,1.61L15,60.14a3,3,0,0,0,1.51,4.15l9.76,4.06-1.39,3.3a1,1,0,0,0,.21,1.1l2.12,2.12a1,1,0,0,0,1.1.21l3.3-1.39,4.06,9.76A3,3,0,0,0,39.86,85l2.37-1.22a3,3,0,0,0,1.62-2.91L42.67,66.38l.55-.42A134.87,134.87,0,0,0,54,56.88L67.65,77.3a5,5,0,0,0,7.69.75l.86-.86a5,5,0,0,0,1.24-5L69.49,46.54,68.37,42.8l.57-.54,1.43-1.36c4.52-4.29,7.78-7.38,10.16-10.55,3-4.05,4.76-8.14,4.76-11.22a4.93,4.93,0,0,0-.73-2.76,2.71,2.71,0,0,0-.42-.51,2.87,2.87,0,0,0-.52-.42,4.79,4.79,0,0,0-2.76-.73c-3,0-7.23,1.79-11.21,4.77-3.17,2.37-6.28,5.65-10.58,10.19l-1.88,2-4-1.2L27.83,22.56a5,5,0,0,0-5,1.24l-.86.86a5,5,0,0,0,.75,7.69L43.12,46A135.52,135.52,0,0,0,34,56.87ZM34.88,59l.69-.88a133.75,133.75,0,0,1,9.82-11.54A1,1,0,0,0,45.21,45L23.81,30.69a3,3,0,0,1-.45-4.61l.86-.86a3,3,0,0,1,3-.74l25.38,7.87,4.6,1.38a1,1,0,0,0,1-.27L60.53,31c4.23-4.47,7.29-7.69,10.33-10,3.65-2.73,7.4-4.37,10-4.37a2.91,2.91,0,0,1,1.68.41,1.17,1.17,0,0,1,.21.17,1.19,1.19,0,0,1,.16.22,3,3,0,0,1,.38,1.62c0,2.62-1.64,6.37-4.37,10-2.27,3-5.49,6.08-9.93,10.29l-1.44,1.37-1,1a1,1,0,0,0-.27,1l1.3,4.34,7.95,25.64a3,3,0,0,1-.74,3l-.86.86a3,3,0,0,1-4.61-.45L55,54.79a1,1,0,0,0-1.52-.17A132.66,132.66,0,0,1,42,64.38l-1,.74a1,1,0,0,0-.39.87l1.21,15a1,1,0,0,1-.54,1l-2.37,1.22a1,1,0,0,1-.8.05,1,1,0,0,1-.58-.56L33.11,72a1,1,0,0,0-.92-.62,1,1,0,0,0-.39.08L28.2,73,27,71.8l1.52-3.6A1,1,0,0,0,28,66.89L17.32,62.44a1,1,0,0,1-.5-1.38L18,58.69a1,1,0,0,1,1-.54l15,1.21A1,1,0,0,0,34.88,59Z"/></g></svg>