<svg xmlns="http://www.w3.org/2000/svg" xmlns:xlink="http://www.w3.org/1999/xlink" version="1.1" x="0px" y="0px" viewBox="0 0 91 113.75" enable-background="new 0 0 91 91" xml:space="preserve"><g><g><path d="M5.487,62.499h81.167c1.471,0,3.189-0.942,3.604-3.59c1.057-6.741-7.214-26.736-21.442-31.309    c-0.208-0.066-0.425-0.101-0.643-0.101H35.531l-3.082-11.858h3.466c1.159,0,2.101-0.94,2.101-2.101c0-1.159-0.941-2.1-2.101-2.1    H23.551c-1.159,0-2.1,0.94-2.1,2.1c0,1.16,0.94,2.101,2.1,2.101h4.559L31.191,27.5h-9.774c-1.159,0-1.101,0.94-1.101,2.1    c0,1.16-0.059,2.101,1.101,2.101h46.417c7.413,2.54,13.005,10.263,15.98,17.08H73.636v-8.163c0.959-0.194,1.681-1.041,1.681-2.058    c0-1.159-0.94-2.101-2.1-2.101h-1.681c-1.159,0-2.101,0.941-2.101,2.101v12.321c0,1.159,0.941,2.1,2.101,2.1h13.826    c0.802,2.729,0.891,4.535,0.75,5.319H64.117V38c0-1.16-0.939-2.1-2.1-2.1H50.816c-1.159,0-2.1,0.939-2.1,2.1v20.3H5.487    c-1.16,0-2.101,0.939-2.101,2.1S4.327,62.499,5.487,62.499z M52.917,40.1h7.001v17.081h-7.001V40.1z"/><path d="M42.977,51.858c1.159,0,2.1-0.94,2.1-2.101v-9.519c0-1.159-0.94-2.101-2.1-2.101h-9.52c-1.159,0-2.1,0.941-2.1,2.101    v9.519c0,1.16,0.94,2.101,2.1,2.101H42.977z M35.558,42.34h5.318v5.318h-5.318V42.34z"/><path d="M17.657,51.858h8.519c1.16,0,2.101-0.94,2.101-2.101v-9.519c0-1.159-0.94-2.101-2.101-2.101h-8.519h-8.96    c-1.159,0-2.1,0.941-2.1,2.101s0.94,2.101,2.1,2.101h6.859v7.418C15.557,50.918,16.498,51.858,17.657,51.858z M24.076,47.658    h-4.318V42.34h4.318V47.658z"/><path d="M88.259,75.1h-6.223V70.7h6.223c1.16,0,2.1-0.939,2.1-2.1s-0.939-2.1-2.1-2.1H3.537c-1.16,0-2.1,0.939-2.1,2.1    s0.939,2.1,2.1,2.1h17.18V75.1h-9.779c-1.16,0-2.1,0.939-2.1,2.1s0.939,2.1,2.1,2.1h77.321c1.16,0,2.1-0.939,2.1-2.1    S89.419,75.1,88.259,75.1z M77.837,75.1h-7.224V70.7h7.224V75.1z M47.766,70.7h7.222V75.1h-7.222V70.7z M43.564,75.1H36.34V70.7    h7.225V75.1z M59.188,70.7h7.225V75.1h-7.225V70.7z M24.916,70.7h7.224V75.1h-7.224V70.7z"/><path d="M9.668,49.602c1.16,0,2.101-0.941,2.101-2.102c0-1.158-0.94-2.1-2.101-2.1h-7.4c-1.16,0-2.101,0.942-2.101,2.1    c0,1.16,0.94,2.102,2.101,2.102H9.668z"/><path d="M3.656,31.7h10.641c1.16,0,2.101-0.94,2.101-2.101c0-1.159-0.94-2.1-2.101-2.1H3.656c-1.16,0-2.1,0.94-2.1,2.1    C1.557,30.76,2.496,31.7,3.656,31.7z"/></g></g></svg>